<?xml version="1.0" encoding="UTF-8" standalone="no"?>
<svg
   height="40"
   width="32"
   version="1.1"
   id="svg44"
   sodipodi:docname="document3.svg"
   inkscape:version="1.2 (dc2aeda, 2022-05-15)"
   xmlns:inkscape="http://www.inkscape.org/namespaces/inkscape"
   xmlns:sodipodi="http://sodipodi.sourceforge.net/DTD/sodipodi-0.dtd"
   xmlns="http://www.w3.org/2000/svg"
   xmlns:svg="http://www.w3.org/2000/svg">
  <defs
     id="defs48" />
  <sodipodi:namedview
     id="namedview46"
     pagecolor="#ffffff"
     bordercolor="#000000"
     borderopacity="0.25"
     inkscape:showpageshadow="2"
     inkscape:pageopacity="0.0"
     inkscape:pagecheckerboard="0"
     inkscape:deskcolor="#d1d1d1"
     showgrid="false"
     inkscape:zoom="21.395833"
     inkscape:cx="11.520935"
     inkscape:cy="16.24148"
     inkscape:window-width="1390"
     inkscape:window-height="1205"
     inkscape:window-x="0"
     inkscape:window-y="25"
     inkscape:window-maximized="0"
     inkscape:current-layer="svg44" />
  <path
     d="m 7.95,31.5 h 16.1 v -3 H 7.95 Z m 0,-8.5 h 16.1 V 20 H 7.95 Z M 3,40 Q 1.8,40 0.9,39.1 0,38.2 0,37 V 3 Q 0,1.8 0.9,0.9 1.8,0 3,0 H 21.05 L 32,10.95 V 37 q 0,1.2 -0.9,2.1 Q 30.2,40 29,40 Z M 19.55,12.3 V 3 H 3 q 0,0 0,0 0,0 0,0 v 34 q 0,0 0,0 0,0 0,0 h 26 q 0,0 0,0 0,0 0,0 V 12.3 Z M 3,3 V 12.3 3 12.3 37 q 0,0 0,0 0,0 0,0 0,0 0,0 0,0 0,0 V 3 q 0,0 0,0 0,0 0,0 z"
     id="path42" />
  <path
     style="fill:#ffffff;stroke-width:0.0467381"
     d="M 3.0146056,20.003895 V 3.0146056 h 8.2492694 8.24927 v 4.6504382 4.6504382 h 4.720545 4.720546 V 24.654333 36.993184 H 15.984421 3.0146056 Z M 24.093476,30.005842 V 28.486855 H 16.00779 7.9221032 v 1.518987 1.518988 h 8.0856868 8.085686 z m 0,-8.506329 V 19.980526 H 16.00779 7.9221032 v 1.518987 1.518987 h 8.0856868 8.085686 z"
     id="path386" />
  <path
     style="fill:#ffffff;stroke-width:0.0467381"
     d="M 3.0146056,20.003895 V 3.0146056 h 8.2492694 8.24927 v 4.6504382 4.6504382 h 4.720545 4.720546 V 24.654333 36.993184 H 15.984421 3.0146056 Z M 24.093476,30.005842 V 28.486855 H 16.00779 7.9221032 v 1.518987 1.518988 h 8.0856868 8.085686 z m 0,-8.506329 V 19.980526 H 16.00779 7.9221032 v 1.518987 1.518987 h 8.0856868 8.085686 z"
     id="path388" />
</svg>
