<?xml version="1.0" standalone="no"?>
<!DOCTYPE svg PUBLIC "-//W3C//DTD SVG 20010904//EN"
 "http://www.w3.org/TR/2001/REC-SVG-20010904/DTD/svg10.dtd">
<svg version="1.0" xmlns="http://www.w3.org/2000/svg"
 width="21px" height="21px" viewBox="0 0 240.000000 240.000000"
 preserveAspectRatio="xMidYMid meet">

<g transform="translate(0.000000,240.000000) scale(0.100000,-0.100000)"
fill="#00A0D2" stroke="none">
<path d="M425 2111 c-22 -10 -52 -31 -67 -47 -60 -64 -58 -35 -58 -836 0 -692
1 -735 19 -773 10 -22 31 -52 47 -67 64 -60 35 -58 836 -58 692 0 735 1 773
19 22 10 52 31 67 47 57 61 58 71 58 469 l0 365 -100 0 -100 0 0 -350 0 -350
-700 0 -700 0 0 700 0 700 350 0 350 0 0 100 0 100 -367 0 c-337 0 -371 -2
-408 -19z"/>
<path d="M1400 2030 l0 -100 177 0 178 0 -490 -490 -490 -490 73 -72 72 -73
490 490 490 490 0 -178 0 -177 100 0 100 0 0 350 0 350 -350 0 -350 0 0 -100z"/>
</g>
</svg>
